<svg xmlns="http://www.w3.org/2000/svg" width="138.237" height="17.371" viewBox="0 0 138.237 17.371">
    <defs>
        <style>
            .cls-1{fill:#747474}.cls-2{fill:#dbdcdd}.cls-3{fill:#fff}
        </style>
    </defs>
    <g id="Group_1119" data-name="Group 1119" transform="translate(-1336.226 -1366)">
        <g id="visa" transform="translate(1337.226 1370)">
            <g id="Group_462" data-name="Group 462" transform="translate(-1)">
                <path id="Path_155" d="M23.494 60.547h-2.309l1.443-8.87h2.309zm-4.252-8.87l-2.2 6.1-.261-1.314L16 52.476a.989.989 0 0 0-1.1-.8h-3.64l-.043.15a8.639 8.639 0 0 1 2.416 1.014l2.006 7.706h2.406l3.674-8.87h-2.477zm18.163 8.87h2.12l-1.849-8.87h-1.855a1.061 1.061 0 0 0-1.066.661l-3.444 8.209h2.407l.482-1.317h2.936l.27 1.317zm-2.54-3.137l1.213-3.319.683 3.319zm-3.373-3.6l.33-1.9a6.665 6.665 0 0 0-2.077-.387c-1.146 0-3.867.5-3.867 2.936 0 2.291 3.194 2.32 3.194 3.524s-2.865.988-3.81.229l-.345 1.988a6.471 6.471 0 0 0 2.607.5c1.576 0 3.953-.816 3.953-3.037 0-2.306-3.223-2.521-3.223-3.524s2.249-.874 3.237-.33z" class="cls-1" data-name="Path 155" transform="translate(-11.226 -51.519)"/>
            </g>
        </g>
        <path id="Path_1506" d="M422.309 239.989v-1.108a.657.657 0 0 0-.694-.7.683.683 0 0 0-.62.314.649.649 0 0 0-.584-.314.584.584 0 0 0-.517.262v-.218h-.384v1.765h.388v-.979a.413.413 0 0 1 .432-.469c.255 0 .384.166.384.465v.982h.388v-.979a.416.416 0 0 1 .432-.469c.262 0 .388.166.388.465v.982zm5.739-1.765h-.628v-.535h-.388v.535h-.358v.351h.358v.8c0 .41.159.654.613.654a.9.9 0 0 0 .48-.137l-.111-.329a.709.709 0 0 1-.34.1c-.192 0-.255-.118-.255-.3v-.8h.628zm3.276-.044a.521.521 0 0 0-.465.259v-.214h-.38v1.765h.384V239c0-.292.126-.454.377-.454a.626.626 0 0 1 .24.044l.118-.362a.821.821 0 0 0-.273-.048zm-4.952.185a1.32 1.32 0 0 0-.72-.185c-.447 0-.735.214-.735.565 0 .288.214.465.609.521l.181.026c.211.03.31.085.31.185 0 .137-.14.214-.4.214a.94.94 0 0 1-.587-.185l-.181.3a1.273 1.273 0 0 0 .764.229c.51 0 .8-.24.8-.576 0-.31-.232-.473-.617-.528l-.181-.026c-.166-.022-.3-.055-.3-.174s.126-.207.336-.207a1.138 1.138 0 0 1 .55.151zm10.288-.185a.521.521 0 0 0-.465.259v-.214h-.38v1.765h.384V239c0-.292.126-.454.377-.454a.626.626 0 0 1 .24.044l.118-.362a.821.821 0 0 0-.273-.048zm-4.949.927a.892.892 0 0 0 .942.927.924.924 0 0 0 .635-.211l-.184-.31a.776.776 0 0 1-.462.159.566.566 0 0 1 0-1.13.776.776 0 0 1 .462.159l.184-.31a.924.924 0 0 0-.635-.211.892.892 0 0 0-.942.927zm3.6 0v-.883h-.384v.214a.67.67 0 0 0-.557-.259.928.928 0 0 0 0 1.854.67.67 0 0 0 .557-.259v.214h.384zm-1.429 0a.534.534 0 1 1 .536.565.53.53 0 0 1-.536-.565zm-4.635-.927a.928.928 0 0 0 .026 1.854 1.073 1.073 0 0 0 .724-.247l-.188-.284a.841.841 0 0 1-.513.185.49.49 0 0 1-.528-.432h1.311c0-.048.007-.1.007-.148a.846.846 0 0 0-.838-.927zm-.007.344a.438.438 0 0 1 .447.428h-.916a.455.455 0 0 1 .469-.428zm9.635.583v-1.591h-.384v.923a.669.669 0 0 0-.557-.259.928.928 0 0 0 0 1.854.669.669 0 0 0 .557-.259v.214h.384zm-1.429 0a.534.534 0 1 1 .536.565.53.53 0 0 1-.536-.565zm-12.969 0v-.883h-.384v.214a.67.67 0 0 0-.558-.259.928.928 0 0 0 0 1.854.67.67 0 0 0 .558-.259v.214h.384zm-1.429 0a.534.534 0 1 1 .536.565.53.53 0 0 1-.54-.565zm16.468.627a.178.178 0 0 1 .069.014.185.185 0 0 1 .057.038.18.18 0 0 1 .038.056.172.172 0 0 1 0 .136.18.18 0 0 1-.038.056.185.185 0 0 1-.057.038.172.172 0 0 1-.069.014.181.181 0 0 1-.128-.052.181.181 0 0 1-.038-.056.174.174 0 0 1 0-.136.18.18 0 0 1 .038-.056.176.176 0 0 1 .057-.038.184.184 0 0 1 .067-.014zm0 .312a.13.13 0 0 0 .053-.011.142.142 0 0 0 .043-.029.135.135 0 0 0 .029-.043.14.14 0 0 0 0-.107.136.136 0 0 0-.072-.072.133.133 0 0 0-.053-.011.138.138 0 0 0-.054.011.132.132 0 0 0-.044.029.135.135 0 0 0-.04.1.137.137 0 0 0 .011.053.135.135 0 0 0 .029.043.138.138 0 0 0 .044.029.135.135 0 0 0 .05.008zm.01-.219a.074.074 0 0 1 .048.014.047.047 0 0 1 .017.038.044.044 0 0 1-.013.033.063.063 0 0 1-.039.016l.053.061h-.042l-.049-.061h-.016v.061h-.035v-.163zm-.04.03v.044h.04a.039.039 0 0 0 .022-.006.02.02 0 0 0 0-.033.041.041 0 0 0-.022-.005zm-.208-5.74v-.217h.086v-.044h-.22v.044h.086v.214zm.427 0v-.258h-.067l-.078.177-.078-.177h-.067v.258h.048v-.195l.073.168h.049l.073-.168v.2zm-11.142 1.283c.052.045.107.089.161.133a6.648 6.648 0 1 1 0-11.074 7.048 7.048 0 0 0-.16.133 7.157 7.157 0 0 0 0 10.808zm4.7-12.052a6.618 6.618 0 0 0-3.68 1.111c.054.044.109.088.161.133a7.157 7.157 0 0 1 0 10.808c-.052.045-.107.089-.161.133a6.648 6.648 0 1 0 3.68-12.185zm-4.109 1.424q-.129.1-.252.208a6.643 6.643 0 0 0 0 10.032q.123.107.252.208.128-.1.252-.208a6.643 6.643 0 0 0 0-10.032q-.123-.107-.252-.208" class="cls-1" data-name="Path 1506" transform="translate(958.732 1142.65)"/>
        <path id="Path_687" d="M21.607 113.966l-3.372 7.651h4.036l.5-1.22h1.144l.5 1.22h4.443v-.931l.4.931h2.3l.4-.951v.951h9.24l1.124-1.188 1.052 1.188 4.746.01-3.382-3.814 3.382-3.847h-4.681l-1.094 1.166-1.019-1.166H31.274l-.863 1.975-.883-1.975H25.5v.9l-.448-.9zm.781 1.086h1.968l2.236 5.188v-5.188h2.155l1.727 3.72 1.592-3.72h2.145v5.49h-1.3l-.011-4.3-1.9 4.3h-1.174l-1.913-4.3v4.3h-2.685l-.509-1.231H21.97l-.508 1.23h-1.439zm13.017 0h5.306l1.623 1.8 1.675-1.8h1.623l-2.466 2.759 2.466 2.727h-1.7l-1.623-1.818-1.684 1.818h-5.22v-5.487zm-12.06.929l-.906 2.192h1.811zm13.371.208v1h2.894v1.117h-2.895v1.094h3.247l1.509-1.611-1.445-1.6h-3.311z" class="cls-1" data-name="Path 687" transform="translate(1393.301 1257.034)"/>
        <g id="Group_779" data-name="Group 779" transform="translate(152.745 1007.051)">
            <path id="Path_964" d="M558.883 213.071h-7.922a4.681 4.681 0 0 0-4.666 4.685v7.944a4.682 4.682 0 0 0 4.666 4.686h7.922a4.681 4.681 0 0 0 4.666-4.686v-7.948a4.68 4.68 0 0 0-4.666-4.685m3.147 12.633a3.156 3.156 0 0 1-3.146 3.159h-7.922a3.146 3.146 0 0 1-2.886-1.908l.274-.241.577-1.647-1.111-1.889v-5.422a3.156 3.156 0 0 1 3.146-3.159h7.922a3.156 3.156 0 0 1 3.146 3.159z" class="cls-2" data-name="Path 964" transform="translate(756.632 145.93)"/>
            <path id="Path_965" d="M559.12 227.63a1.773 1.773 0 0 0 .56.083c.844 0 1.24-.336 1.24-.737 0-.47-.632-.467-.7-.88a7.21 7.21 0 0 1 .853-4.058l.588.267a.757.757 0 0 0 .371.086.573.573 0 0 0 .4-.205 12.819 12.819 0 0 0 1.542-2.133 8.415 8.415 0 0 0-1.864-2.271 2.782 2.782 0 0 0-4.365 1.257 13.252 13.252 0 0 1-3.942 1.878c-1.9.5-3.87.033-5.207.1a2.7 2.7 0 0 0-2.7 2.818c.041 1.488 1.062 2.843 1.062 4.241a1.528 1.528 0 0 1-1.5 1.578c-.73 0-.78-.3-1-.3a.2.2 0 0 0-.195.2c0 .37.9.722 1.418.722a2.261 2.261 0 0 0 1.942-.982 1.71 1.71 0 0 0 1.7 1.017c1.078 0 1.545-.517 1.545-.95 0-.351-.213-.5-.365-.706a1.166 1.166 0 0 1-.207-.649 4.008 4.008 0 0 0 .585.038c.783 0 1.025-.319 1.025-.632 0-.4-.47-.376-.47-1.038 0-.5.277-.666.52-.666.264 0 1.263.1 2.473.22.4.041 1.414.434 1.414 2.006v.563a1.914 1.914 0 0 0 2.072 2.143c1.146 0 1.789-.642 1.789-1.106 0-.3-.264-.435-.394-.617a1.739 1.739 0 0 1-.194-1.283" class="cls-1" data-name="Path 965" transform="translate(757.74 143.7)"/>
            <path id="Path_966" d="M582.7 225.06a.2.2 0 1 0 .2.2.2.2 0 0 0-.2-.2" class="cls-3" data-name="Path 966" transform="translate(736.935 139.408)"/>
            <path id="Path_967" d="M584.244 223.78a.182.182 0 1 0 .179.182.18.18 0 0 0-.179-.182" class="cls-3" data-name="Path 967" transform="translate(736.089 140.104)"/>
            <path id="Path_968" d="M585 222.307a.15.15 0 1 0 .149.149.149.149 0 0 0-.149-.149" class="cls-3" data-name="Path 968" transform="translate(735.659 140.906)"/>
            <path id="Path_969" d="M572.425 223.868a.215.215 0 1 0-.152-.063.216.216 0 0 0 .152.063" class="cls-3" data-name="Path 969" transform="translate(742.534 140.291)"/>
            <path id="Path_970" d="M574.237 235.837a.215.215 0 1 0 .215.216.215.215 0 0 0-.215-.216" class="cls-3" data-name="Path 970" transform="translate(741.548 133.545)"/>
            <path id="Path_971" d="M577.043 236.31a.215.215 0 1 0 .152.063.216.216 0 0 0-.152-.063" class="cls-3" data-name="Path 971" transform="translate(740.022 133.288)"/>
            <path id="Path_972" d="M574.628 231.533a.215.215 0 1 0 .152.063.215.215 0 0 0-.152-.063" class="cls-3" data-name="Path 972" transform="translate(741.336 135.887)"/>
            <path id="Path_973" d="M576.238 227.811a.216.216 0 1 0-.214-.215.216.216 0 0 0 .214.215" class="cls-3" data-name="Path 973" transform="translate(740.459 138.147)"/>
            <path id="Path_974" d="M568.882 225.9a.216.216 0 1 0-.215-.215.216.216 0 0 0 .215.215" class="cls-3" data-name="Path 974" transform="translate(744.462 139.186)"/>
            <path id="Path_975" d="M571.519 234.866a.215.215 0 1 0 .152.064.216.216 0 0 0-.152-.064" class="cls-3" data-name="Path 975" transform="translate(743.028 134.074)"/>
            <path id="Path_976" d="M570.221 228.23a.215.215 0 1 0-.152-.064.216.216 0 0 0 .152.064" class="cls-3" data-name="Path 976" transform="translate(743.733 137.919)"/>
            <path id="Path_977" d="M567.243 231.438a.215.215 0 1 0 .153.063.216.216 0 0 0-.153-.063" class="cls-3" data-name="Path 977" transform="translate(745.353 135.938)"/>
            <path id="Path_978" d="M572.118 230.417a.216.216 0 1 0-.214-.215.216.216 0 0 0 .214.215" class="cls-3" data-name="Path 978" transform="translate(742.701 136.728)"/>
            <path id="Path_979" d="M564.664 226.691a.216.216 0 1 0 .215.217.216.216 0 0 0-.215-.217" class="cls-3" data-name="Path 979" transform="translate(746.758 138.521)"/>
            <path id="Path_980" d="M565.692 229.149a.215.215 0 1 0 .152.064.215.215 0 0 0-.152-.064" class="cls-3" data-name="Path 980" transform="translate(746.197 137.184)"/>
            <path id="Path_981" d="M569.142 233.275a.216.216 0 1 0 .153.063.216.216 0 0 0-.153-.063" class="cls-3" data-name="Path 981" transform="translate(744.321 134.939)"/>
            <path id="Path_982" d="M573.993 226.067a.215.215 0 1 0-.214-.215.215.215 0 0 0 .214.215" class="cls-3" data-name="Path 982" transform="translate(741.681 139.094)"/>
            <path id="Path_983" d="M577.457 232.437a.215.215 0 1 0 .152.063.216.216 0 0 0-.152-.063" class="cls-3" data-name="Path 983" transform="translate(739.798 135.395)"/>
            <path id="Path_984" d="M578.643 228.577a.215.215 0 1 0 .215.215.215.215 0 0 0-.215-.215" class="cls-3" data-name="Path 984" transform="translate(739.152 137.495)"/>
            <path id="Path_985" d="M578.338 224.687a.217.217 0 1 0 .214.216.215.215 0 0 0-.214-.216" class="cls-3" data-name="Path 985" transform="translate(739.32 139.611)"/>
            <path id="Path_986" d="M580.577 225.414a.216.216 0 1 0 .214.215.216.216 0 0 0-.214-.215" class="cls-3" data-name="Path 986" transform="translate(738.101 139.215)"/>
            <path id="Path_987" d="M576.656 223.224a.216.216 0 1 0 .214.216.216.216 0 0 0-.214-.216" class="cls-3" data-name="Path 987" transform="translate(740.234 140.407)"/>
            <path id="Path_988" d="M575.729 221.441a.216.216 0 1 0 .215.216.216.216 0 0 0-.215-.216" class="cls-3" data-name="Path 988" transform="translate(740.737 141.377)"/>
            <path id="Path_989" d="M577.684 221.441a.215.215 0 1 0 .153.063.216.216 0 0 0-.153-.063" class="cls-3" data-name="Path 989" transform="translate(739.674 141.377)"/>
            <path id="Path_990" d="M575.711 219.937a.18.18 0 1 1 .052.129.18.18 0 0 1-.052-.129" class="cls-3" data-name="Path 990" transform="translate(740.63 142.291)"/>
            <path id="Path_991" d="M576.883 218.551a.135.135 0 1 1 .137.137.137.137 0 0 1-.137-.137" class="cls-3" data-name="Path 991" transform="translate(739.992 143.021)"/>
            <path id="Path_992" d="M578.4 217.889a.119.119 0 1 1 .118.119.119.119 0 0 1-.118-.119" class="cls-3" data-name="Path 992" transform="translate(739.167 143.374)"/>
            <path id="Path_993" d="M584.88 221.163a.109.109 0 1 1 .109.109.109.109 0 0 1-.109-.109" class="cls-3" data-name="Path 993" transform="translate(735.642 141.587)"/>
            <path id="Path_994" d="M584.544 225.878a.118.118 0 1 1 .124.114.121.121 0 0 1-.124-.114" class="cls-3" data-name="Path 994" transform="translate(735.825 139.03)"/>
            <path id="Path_995" d="M585.213 224.965a.117.117 0 0 1 .112-.123.117.117 0 1 1 .009.234.115.115 0 0 1-.121-.112" class="cls-3" data-name="Path 995" transform="translate(735.461 139.527)"/>
            <path id="Path_996" d="M583.838 226.783a.115.115 0 0 1 .112-.122.117.117 0 0 1 .01.234.116.116 0 0 1-.121-.112" class="cls-3" data-name="Path 996" transform="translate(736.209 138.537)"/>
            <path id="Path_997" d="M583.039 227.632a.117.117 0 1 1 .121.112.115.115 0 0 1-.121-.112" class="cls-3" data-name="Path 997" transform="translate(736.643 138.076)"/>
            <path id="Path_998" d="M585.825 224.057a.117.117 0 1 1 .037.082.117.117 0 0 1-.037-.082" class="cls-3" data-name="Path 998" transform="translate(735.128 140.019)"/>
            <path id="Path_999" d="M586.3 223.258a.116.116 0 1 1 .036.082.117.117 0 0 1-.036-.082" class="cls-3" data-name="Path 999" transform="translate(734.869 140.454)"/>
            <path id="Path_1000" d="M555.773 238.283a3.511 3.511 0 0 1-.243-2.764 2.266 2.266 0 0 1 2.329-1.346 2.014 2.014 0 0 0-.912-.178 2.28 2.28 0 0 0-2.08 2.454 2.447 2.447 0 0 0 .906 1.834" class="cls-3" data-name="Path 1000" transform="translate(751.973 134.548)"/>
            <path id="Path_1001" d="M549.841 230.037a1.874 1.874 0 0 1-.547-1.326 1.908 1.908 0 0 1 1.87-1.875c1.062-.058 3.01.262 4.255.1a8.322 8.322 0 0 0 3.83 4.651c-1.775-.793-3.476-2.6-4.962-3.426-1.55-.864-3.108-.993-3.927-.237a2.139 2.139 0 0 0-.517 2.115" class="cls-3" data-name="Path 1001" transform="translate(755 138.445)"/>
            <path id="Path_1002" d="M559.055 238.127c.1.555-.9.73-.9.73a1.206 1.206 0 0 0 1.247-.327z" class="cls-3" data-name="Path 1002" transform="translate(750.181 132.3)"/>
            <path id="Path_1003" d="M574.509 238.772v-.006a2.971 2.971 0 0 0-.185 2.375 2.69 2.69 0 0 1-1.052.535s1.368.177 1.8-.555c-.826-.643-.58-2.242-.562-2.35" class="cls-3" data-name="Path 1003" transform="translate(741.956 131.952)"/>
            <path id="Path_1004" d="M580.984 219.526a.833.833 0 1 0 .821.983.912.912 0 0 0-.821-.983m.668.947a.708.708 0 1 1-.58-.7.644.644 0 0 1 .58.7" class="cls-3" data-name="Path 1004" transform="translate(738.213 142.419)"/>
            <path id="Path_1005" d="M581.867 220.833a.392.392 0 1 1 .319.385.356.356 0 0 1-.319-.385" class="cls-3" data-name="Path 1005" transform="translate(737.281 141.921)"/>
            <path id="Path_1006" d="M578.559 237.048c.328.612-.723.836-.723.836.73.124 1.15-.347 1.15-.542-.157-.662-.33-.159-.427-.295" class="cls-3" data-name="Path 1006" transform="translate(739.474 132.917)"/>
            <path id="Path_1007" d="M580.606 219.347a1.537 1.537 0 0 0-2.6-.123.251.251 0 1 1-.387-.319 1.816 1.816 0 0 1 1.35-.6 1.778 1.778 0 0 1 1.635 1.044" class="cls-3" data-name="Path 1007" transform="translate(739.622 143.084)"/>
            <path id="Path_1008" d="M576.839 224.735a3.629 3.629 0 0 1-1.915-.775 3.947 3.947 0 0 1-1.2-1.357.166.166 0 0 1 .059-.228.161.161 0 0 1 .225.059 4.459 4.459 0 0 0 1.135 1.456 3.853 3.853 0 0 0 1.693.845" class="cls-3" data-name="Path 1008" transform="translate(741.721 140.882)"/>
            <path id="Path_1009" d="M574.246 227.232a4.788 4.788 0 0 1-3.007-1.484 4.918 4.918 0 0 1-.934-1.332.164.164 0 0 1 .065-.224.161.161 0 0 1 .224.066 5.628 5.628 0 0 0 1.108 1.662 4.424 4.424 0 0 0 2.544 1.313" class="cls-3" data-name="Path 1009" transform="translate(743.582 139.893)"/>
            <path id="Path_1010" d="M566.6 225.917a.167.167 0 0 1 .209.1 6.017 6.017 0 0 0 1.459 2.351 5.411 5.411 0 0 0 3.557 1.6 5.42 5.42 0 0 1-3.861-1.613 6.331 6.331 0 0 1-1.47-2.229.166.166 0 0 1 .1-.21" class="cls-3" data-name="Path 1010" transform="translate(745.649 138.946)"/>
            <path id="Path_1011" d="M579.229 222.333a1.833 1.833 0 0 0 .954.3 1.168 1.168 0 0 0 1.236-.958 1.327 1.327 0 0 1-1.352 1.2 1.812 1.812 0 0 1-.988-.238.169.169 0 0 1-.074-.225.161.161 0 0 1 .223-.075" class="cls-3" data-name="Path 1011" transform="translate(738.847 141.251)"/>
        </g>
    </g>
</svg>
