<svg xmlns="http://www.w3.org/2000/svg" width="128.813" height="17.871" viewBox="0 0 128.813 17.871">
    <defs>
        <style>
            .cls-1{fill:#231f20}.cls-2{fill:#f79410}.cls-3{fill:#ff5f00}.cls-4{fill:#eb001b}.cls-5{fill:#f79e1b}.cls-6{fill:#0077a6;fill-rule:evenodd}.cls-7{fill:url(#linear-gradient)}.cls-8{fill:#dbdcdd}.cls-9{fill:#fc6719}.cls-10{fill:#fff}
        </style>
        <linearGradient id="linear-gradient" x1=".09" x2=".934" y1=".968" y2=".007" gradientUnits="objectBoundingBox">
            <stop offset="0" stop-color="#1a1e5a"/>
            <stop offset="1" stop-color="#122d98"/>
        </linearGradient>
    </defs>
    <g id="Group_1010" data-name="Group 1010" transform="translate(-1130.278 -1359.698)">
        <g id="mastercard-2" transform="translate(1171.143 1361)">
            <path id="Path_157" d="M123.332 1319.419v.043h.04a.043.043 0 0 0 .021-.005.019.019 0 0 0 .008-.016.018.018 0 0 0-.008-.016.036.036 0 0 0-.021-.005h-.04zm.04-.03a.072.072 0 0 1 .048.014.045.045 0 0 1 .017.038.043.043 0 0 1-.013.033.065.065 0 0 1-.038.016l.053.061h-.039l-.049-.06h-.016v.06h-.035v-.161h.075zm-.011.217a.126.126 0 0 0 .052-.01.137.137 0 0 0 .043-.029.134.134 0 0 0 .029-.042.135.135 0 0 0-.071-.177.135.135 0 0 0-.052-.01.14.14 0 0 0-.053.01.134.134 0 0 0-.072.178.128.128 0 0 0 .028.043.136.136 0 0 0 .044.029.131.131 0 0 0 .053.011m0-.309a.178.178 0 0 1 .125.051.172.172 0 0 1 .038.19.18.18 0 0 1-.038.055.192.192 0 0 1-.056.037.174.174 0 0 1-.069.014.176.176 0 0 1-.07-.014.166.166 0 0 1-.094-.094.172.172 0 0 1 .038-.19.168.168 0 0 1 .057-.037.174.174 0 0 1 .07-.014m-16.3-.62a.529.529 0 1 1 .53.56.524.524 0 0 1-.53-.56m1.415 0v-.874h-.38v.213a.663.663 0 0 0-.552-.256.919.919 0 0 0 0 1.835.663.663 0 0 0 .552-.256v.212h.38v-.874zm12.84 0a.529.529 0 1 1 .53.56.524.524 0 0 1-.53-.56m1.415 0v-1.578h-.38v.915a.663.663 0 0 0-.552-.256.919.919 0 0 0 0 1.835.663.663 0 0 0 .552-.256v.212h.38zm-9.539-.577a.434.434 0 0 1 .442.424h-.907a.45.45 0 0 1 .465-.424m.008-.341a.918.918 0 0 0 .025 1.835 1.061 1.061 0 0 0 .716-.245l-.186-.282a.833.833 0 0 1-.508.183.485.485 0 0 1-.523-.428h1.3c0-.047.008-.095.008-.146a.838.838 0 0 0-.83-.918m4.588.918a.529.529 0 1 1 .53.559.524.524 0 0 1-.53-.559m1.415 0v-.874h-.38v.213a.663.663 0 0 0-.552-.256.919.919 0 0 0 0 1.835.663.663 0 0 0 .552-.256v.212h.38v-.874zm-3.561 0a.883.883 0 0 0 .932.918.914.914 0 0 0 .628-.208l-.182-.307a.768.768 0 0 1-.458.157.561.561 0 0 1 0-1.119.769.769 0 0 1 .458.157l.182-.307a.914.914 0 0 0-.628-.208.883.883 0 0 0-.932.918m4.9-.918a.516.516 0 0 0-.461.256v-.212h-.385v1.747h.38v-.98c0-.289.124-.45.373-.45a.614.614 0 0 1 .238.044l.117-.358a.8.8 0 0 0-.271-.048m-10.186.183a1.306 1.306 0 0 0-.713-.183c-.443 0-.728.212-.728.559 0 .285.212.461.6.516l.18.026c.208.029.307.084.307.183 0 .135-.138.212-.4.212a.931.931 0 0 1-.581-.183l-.179.3a1.26 1.26 0 0 0 .757.227c.5 0 .8-.238.8-.57 0-.307-.23-.468-.611-.523l-.179-.026c-.165-.021-.3-.054-.3-.172s.124-.2.333-.2a1.127 1.127 0 0 1 .545.15l.165-.307zm4.9-.183a.514.514 0 0 0-.46.256v-.213h-.377v1.747h.38v-.98c0-.289.124-.45.373-.45a.614.614 0 0 1 .238.044l.117-.358a.8.8 0 0 0-.271-.048m-3.243.044h-.621v-.53h-.384v.53h-.354v.347h.354v.8c0 .405.157.647.607.647a.894.894 0 0 0 .475-.135l-.11-.325a.705.705 0 0 1-.336.1c-.19 0-.252-.117-.252-.293v-.79h.621zm-5.681 1.748v-1.1a.651.651 0 0 0-.687-.695.676.676 0 0 0-.614.311.641.641 0 0 0-.578-.311.578.578 0 0 0-.512.26v-.216h-.38v1.747h.383v-.969a.409.409 0 0 1 .428-.465c.252 0 .38.165.38.461v.972h.384v-.969a.412.412 0 0 1 .428-.464c.259 0 .383.165.383.461v.973z" class="cls-1" data-name="Path 157" transform="translate(-102.457 -1303.077)"/>
            <path id="Path_158" d="M1929.4 977.476v-.256h-.067l-.077.175-.077-.175h-.067v.256h.047v-.193l.072.166h.049l.072-.167v.193h.047zm-.422 0v-.212h.085v-.043h-.218v.043h.085v.212h.047z" class="cls-2" data-name="Path 158" transform="translate(-1908.313 -966.815)"/>
            <path id="Path_159" d="M735.469 142.5h-5.759v-10.35h5.759z" class="cls-3" data-name="Path 159" transform="translate(-721.94 -130.743)"/>
            <path id="Path_160" d="M8.135 6.581a6.571 6.571 0 0 1 2.514-5.175 6.582 6.582 0 1 0 0 10.349 6.571 6.571 0 0 1-2.514-5.174" class="cls-4" data-name="Path 160" transform="translate(0 .001)"/>
            <path id="Path_161" d="M1010.759 6.581a6.582 6.582 0 0 1-10.649 5.175 6.582 6.582 0 0 0 0-10.349 6.581 6.581 0 0 1 10.649 5.175" class="cls-5" data-name="Path 161" transform="translate(-989.461 .001)"/>
        </g>
        <g id="american-express-630" transform="translate(1206.75 1359.698)">
            <path id="Path_163" d="M32 24.939c0 .446-.283.654-.788.654h-.966v-.446h.966a.308.308 0 0 0 .188-.047.189.189 0 0 0 .059-.134.226.226 0 0 0-.059-.149.258.258 0 0 0-.179-.045c-.461-.015-1.041.015-1.041-.639a.627.627 0 0 1 .714-.625h1v.446h-.922a.353.353 0 0 0-.193.03.213.213 0 0 0-.074.164.162.162 0 0 0 .1.149.76.76 0 0 0 .193.03h.268a.844.844 0 0 1 .58.164.643.643 0 0 1 .154.448zm-2.1-.446a.844.844 0 0 0-.58-.164h-.268a.762.762 0 0 1-.193-.03.162.162 0 0 1-.1-.149.174.174 0 0 1 .074-.164.352.352 0 0 1 .193-.03h.922v-.446h-1c-.535 0-.714.327-.714.625 0 .654.58.624 1.041.639a.257.257 0 0 1 .178.045.227.227 0 0 1 .06.149.189.189 0 0 1-.06.134.338.338 0 0 1-.193.044h-.96v.446h.967c.505 0 .788-.208.788-.654a.642.642 0 0 0-.149-.446zm-1.9.669h-1.176v-.416h1.145v-.416h-1.145v-.387H28v-.431h-1.667v2.082H28zm-2.2-1.546a1.248 1.248 0 0 0-.61-.1h-1.147v2.082h.505v-.758h.535c.178 0 .283.015.357.089a.664.664 0 0 1 .089.416v.253h.491v-.4a.686.686 0 0 0-.074-.387.58.58 0 0 0-.253-.178.573.573 0 0 0 .357-.55.467.467 0 0 0-.25-.467zm-2.825-.1h-1.594l-.639.684-.61-.684h-2.007v2.082H20.1l.639-.684.61.684h.967v-.7h.625c.431 0 .863-.119.863-.7s-.445-.686-.831-.686zm2.424.863a.618.618 0 0 1-.238.03l-.61.015v-.476h.61a.4.4 0 0 1 .238.045.189.189 0 0 1 .1.178.26.26 0 0 1-.099.203zm-2.424.1h-.654v-.535h.654c.178 0 .3.074.3.253a.27.27 0 0 1-.302.281zm-1.918.074l.773-.818v1.68zm-1.2.61h-1.241v-.416h1.1v-.417h-1.1v-.387h1.249l.55.61zm10.758-3.153H29.9l-.937-1.561v1.561h-1.009l-.193-.461H26.72l-.193.461h-.58a1.076 1.076 0 0 1-.728-.238 1.088 1.088 0 0 1-.253-.788 1.075 1.075 0 0 1 .268-.818 1.009 1.009 0 0 1 .758-.238h.476v.446h-.476a.526.526 0 0 0-.387.119.674.674 0 0 0-.134.476.744.744 0 0 0 .134.491.5.5 0 0 0 .342.1h.223l.714-1.636h.744l.833 1.963v-1.958h.773l.877 1.442v-1.442h.505v2.081zm-5.9-2.082h-.505v2.082h.505zm-1.056.089a1.2 1.2 0 0 0-.595-.089h-1.147v2.082h.491v-.758h.535a.51.51 0 0 1 .372.089.631.631 0 0 1 .074.4v.268h.505v-.416a.555.555 0 0 0-.089-.372.622.622 0 0 0-.238-.178.59.59 0 0 0 .357-.55.515.515 0 0 0-.268-.475zm-2.1 1.561H20.4v-.416h1.145v-.431H20.4v-.371h1.16v-.431h-1.665v2.081h1.665v-.431zm-2.037-1.651H18.7l-.61 1.413-.654-1.413h-.8v1.963l-.848-1.963h-.743l-.892 2.082h.535l.193-.461h1.041l.193.461h1.011v-1.634l.729 1.636h.431l.729-1.636v1.635h.506v-2.081zm8.06 1.173l-.342-.818-.34.818zm-4.312-.327a.454.454 0 0 1-.253.045h-.61v-.458h.61a.657.657 0 0 1 .253.03.221.221 0 0 1 .089.193.2.2 0 0 1-.089.193zm-8.208.327l.342-.818.342.818zm16.817-7.7H14.14v7.5l.61-1.383h1.294l.178.342v-.342h1.517l.342.743.327-.743h4.832a.879.879 0 0 1 .565.164v-.164h1.323v.164a1.771 1.771 0 0 1 .833-.164h1.918l.178.342v-.342h1.413l.208.342v-.342h1.383v2.914h-1.4l-.268-.446v.446h-1.74l-.193-.476h-.431l-.193.476h-.907a1.782 1.782 0 0 1-.8-.178v.178h-2.156v-.669c0-.089-.015-.1-.074-.1h-.074v.773H18.66v-.372l-.149.372h-.877l-.149-.357v.357h-1.68l-.178-.476H15.2l-.2.467h-.86v8.788h17.739v-5.338a1.821 1.821 0 0 1-.729.134h-1.293v-.178a1.147 1.147 0 0 1-.669.178h-4.074v-.669c0-.089-.015-.089-.089-.089h-.075v.758h-1.338v-.788a1.636 1.636 0 0 1-.7.1h-.149v.684h-1.634l-.387-.446-.431.446h-2.632V23.1h2.676l.387.446.416-.446h1.8a1.122 1.122 0 0 1 .7.178V23.1h1.606a1.272 1.272 0 0 1 .684.178V23.1h2.422v.178a.989.989 0 0 1 .61-.178h1.353v.178a1.075 1.075 0 0 1 .625-.178h.922z" class="cls-6" data-name="Path 163" transform="translate(-14.14 -13.401)"/>
        </g>
        <g id="visa" transform="translate(1130.755 1365.072)">
            <path id="Path_672" d="M78.278 66.458l-3.72 8.89H72.14l-1.84-7.1a.972.972 0 0 0-.539-.777 9.29 9.29 0 0 0-2.261-.751l.053-.263h3.9a1.076 1.076 0 0 1 1.065.909l.962 5.134 2.392-6.045zm9.5 5.979c.013-2.344-3.233-2.476-3.22-3.516.013-.316.315-.659.973-.738a4.338 4.338 0 0 1 2.261.4L88.2 66.7a6.219 6.219 0 0 0-2.142-.4c-2.261 0-3.864 1.212-3.877 2.937-.013 1.278 1.144 1.989 2.011 2.423.894.435 1.2.711 1.2 1.106-.013.593-.71.856-1.367.869a4.774 4.774 0 0 1-2.353-.566l-.421 1.949a6.916 6.916 0 0 0 2.55.474c2.392-.013 3.969-1.212 3.983-3.055m5.98 2.9h2.116l-1.853-8.89h-1.962a1.053 1.053 0 0 0-.973.645l-3.444 8.231h2.405l.473-1.33h2.944zm-2.564-3.15l1.209-3.332.7 3.332zm-9.647-5.729l-1.893 8.877h-2.3l1.906-8.877z" class="cls-7" data-name="Path 672" transform="translate(-67.978 -66.623)"/>
        </g>
        <g id="Group_779" data-name="Group 779" transform="translate(-62.916 1000.697)">
            <path id="Path_964" d="M559.072 213.071h-8.04a4.75 4.75 0 0 0-4.736 4.753v8.063a4.751 4.751 0 0 0 4.736 4.754h8.04a4.75 4.75 0 0 0 4.736-4.754v-8.063a4.749 4.749 0 0 0-4.736-4.753m3.194 12.815a3.2 3.2 0 0 1-3.194 3.2h-8.04a3.194 3.194 0 0 1-2.929-1.935l.278-.244.586-1.671-1.128-1.916v-5.5a3.2 3.2 0 0 1 3.194-3.2h8.04a3.2 3.2 0 0 1 3.194 3.2z" class="cls-8" data-name="Path 964" transform="translate(756.643 145.93)"/>
            <path id="Path_965" d="M559.337 227.79a1.8 1.8 0 0 0 .568.084c.856 0 1.258-.341 1.258-.748 0-.477-.642-.475-.708-.894a7.324 7.324 0 0 1 .865-4.12l.6.271a.767.767 0 0 0 .376.087.582.582 0 0 0 .405-.208 13.019 13.019 0 0 0 1.564-2.166 8.543 8.543 0 0 0-1.891-2.306 2.821 2.821 0 0 0-4.429 1.276 13.444 13.444 0 0 1-4 1.907c-1.928.509-3.927.034-5.283.1a2.739 2.739 0 0 0-2.742 2.861c.042 1.511 1.077 2.887 1.077 4.306a1.55 1.55 0 0 1-1.521 1.6c-.74 0-.792-.3-1.018-.3a.2.2 0 0 0-.2.2c0 .375.917.733 1.438.733a2.293 2.293 0 0 0 1.97-1 1.735 1.735 0 0 0 1.726 1.033c1.093 0 1.568-.525 1.568-.964 0-.356-.216-.509-.37-.717a1.186 1.186 0 0 1-.21-.659 4.066 4.066 0 0 0 .594.039c.794 0 1.04-.324 1.04-.642 0-.41-.477-.382-.477-1.054 0-.509.281-.676.528-.676.268 0 1.282.1 2.51.224.411.041 1.434.44 1.434 2.037v.572a1.943 1.943 0 0 0 2.1 2.176c1.162 0 1.815-.652 1.815-1.123 0-.307-.268-.441-.4-.626a1.766 1.766 0 0 1-.2-1.3" class="cls-9" data-name="Path 965" transform="translate(757.74 143.722)"/>
            <path id="Path_966" d="M582.706 225.06a.2.2 0 1 0 .2.2.2.2 0 0 0-.2-.2" class="cls-10" data-name="Path 966" transform="translate(737.196 139.488)"/>
            <path id="Path_967" d="M584.246 223.78a.185.185 0 1 0 .181.185.182.182 0 0 0-.181-.185" class="cls-10" data-name="Path 967" transform="translate(736.358 140.176)"/>
            <path id="Path_968" d="M585 222.307a.151.151 0 1 0 .151.151.151.151 0 0 0-.151-.151" class="cls-10" data-name="Path 968" transform="translate(735.932 140.967)"/>
            <path id="Path_969" d="M572.428 223.873a.218.218 0 1 0-.154-.064.219.219 0 0 0 .154.064" class="cls-10" data-name="Path 969" transform="translate(742.721 140.361)"/>
            <path id="Path_970" d="M574.24 235.837a.218.218 0 1 0 .218.219.218.218 0 0 0-.218-.219" class="cls-10" data-name="Path 970" transform="translate(741.748 133.697)"/>
            <path id="Path_971" d="M577.045 236.31a.217.217 0 1 0 .154.063.218.218 0 0 0-.154-.063" class="cls-10" data-name="Path 971" transform="translate(740.241 133.443)"/>
            <path id="Path_972" d="M574.631 231.533a.217.217 0 1 0 .154.064.218.218 0 0 0-.154-.064" class="cls-10" data-name="Path 972" transform="translate(741.538 136.01)"/>
            <path id="Path_973" d="M576.24 227.816a.219.219 0 1 0-.216-.218.219.219 0 0 0 .216.218" class="cls-10" data-name="Path 973" transform="translate(740.672 138.242)"/>
            <path id="Path_974" d="M568.884 225.9a.218.218 0 1 0-.217-.218.218.218 0 0 0 .217.218" class="cls-10" data-name="Path 974" transform="translate(744.625 139.269)"/>
            <path id="Path_975" d="M571.521 234.866a.218.218 0 1 0 .154.064.218.218 0 0 0-.154-.064" class="cls-10" data-name="Path 975" transform="translate(743.209 134.219)"/>
            <path id="Path_976" d="M570.223 228.235a.218.218 0 1 0-.154-.064.219.219 0 0 0 .154.064" class="cls-10" data-name="Path 976" transform="translate(743.906 138.017)"/>
            <path id="Path_977" d="M567.246 231.438a.218.218 0 1 0 .155.064.218.218 0 0 0-.155-.064" class="cls-10" data-name="Path 977" transform="translate(745.506 136.061)"/>
            <path id="Path_978" d="M572.12 230.423a.218.218 0 1 0-.216-.217.218.218 0 0 0 .216.217" class="cls-10" data-name="Path 978" transform="translate(742.886 136.841)"/>
            <path id="Path_979" d="M564.666 226.691a.219.219 0 1 0 .217.219.219.219 0 0 0-.217-.219" class="cls-10" data-name="Path 979" transform="translate(746.893 138.611)"/>
            <path id="Path_980" d="M565.694 229.149a.218.218 0 1 0 .154.064.218.218 0 0 0-.154-.064" class="cls-10" data-name="Path 980" transform="translate(746.339 137.291)"/>
            <path id="Path_981" d="M569.144 233.275a.218.218 0 1 0 .155.064.219.219 0 0 0-.155-.064" class="cls-10" data-name="Path 981" transform="translate(744.486 135.074)"/>
            <path id="Path_982" d="M574 226.073a.218.218 0 1 0-.217-.217.218.218 0 0 0 .217.217" class="cls-10" data-name="Path 982" transform="translate(741.878 139.178)"/>
            <path id="Path_983" d="M577.46 232.437a.217.217 0 1 0 .154.064.219.219 0 0 0-.154-.064" class="cls-10" data-name="Path 983" transform="translate(740.019 135.524)"/>
            <path id="Path_984" d="M578.646 228.577a.218.218 0 1 0 .218.218.218.218 0 0 0-.218-.218" class="cls-10" data-name="Path 984" transform="translate(739.38 137.598)"/>
            <path id="Path_985" d="M578.341 224.687a.217.217 0 1 0 .154.064.219.219 0 0 0-.154-.064" class="cls-10" data-name="Path 985" transform="translate(739.546 139.688)"/>
            <path id="Path_986" d="M580.58 225.414a.218.218 0 1 0 .217.218.218.218 0 0 0-.217-.218" class="cls-10" data-name="Path 986" transform="translate(738.35 139.298)"/>
            <path id="Path_987" d="M576.659 223.224a.219.219 0 1 0 .217.219.219.219 0 0 0-.217-.219" class="cls-10" data-name="Path 987" transform="translate(740.45 140.474)"/>
            <path id="Path_988" d="M575.732 221.441a.218.218 0 1 0 .218.218.218.218 0 0 0-.218-.218" class="cls-10" data-name="Path 988" transform="translate(740.947 141.432)"/>
            <path id="Path_989" d="M577.686 221.441a.218.218 0 1 0 .155.064.218.218 0 0 0-.155-.064" class="cls-10" data-name="Path 989" transform="translate(739.896 141.433)"/>
            <path id="Path_990" d="M575.711 219.939a.182.182 0 1 1 .052.13.182.182 0 0 1-.052-.13" class="cls-10" data-name="Path 990" transform="translate(740.84 142.328)"/>
            <path id="Path_991" d="M576.883 218.553a.136.136 0 1 1 .138.138.138.138 0 0 1-.138-.138" class="cls-10" data-name="Path 991" transform="translate(740.21 143.05)"/>
            <path id="Path_992" d="M578.4 217.89a.12.12 0 1 1 .119.121.12.12 0 0 1-.119-.121" class="cls-10" data-name="Path 992" transform="translate(739.395 143.399)"/>
            <path id="Path_993" d="M584.88 221.164a.11.11 0 1 1 .11.11.11.11 0 0 1-.11-.11" class="cls-10" data-name="Path 993" transform="translate(735.916 141.64)"/>
            <path id="Path_994" d="M584.544 225.88a.119.119 0 0 1 .115-.124.118.118 0 0 1 .123.114.12.12 0 0 1-.113.125.123.123 0 0 1-.125-.115" class="cls-10" data-name="Path 994" transform="translate(736.097 139.114)"/>
            <path id="Path_995" d="M585.213 224.966a.118.118 0 1 1 .122.113.117.117 0 0 1-.122-.113" class="cls-10" data-name="Path 995" transform="translate(735.737 139.605)"/>
            <path id="Path_996" d="M583.838 226.785a.116.116 0 0 1 .113-.124.119.119 0 0 1 .01.237.117.117 0 0 1-.123-.114" class="cls-10" data-name="Path 996" transform="translate(736.477 138.628)"/>
            <path id="Path_997" d="M583.039 227.633a.119.119 0 1 1 .123.113.117.117 0 0 1-.123-.113" class="cls-10" data-name="Path 997" transform="translate(736.907 138.172)"/>
            <path id="Path_998" d="M585.825 224.058a.118.118 0 1 1 .038.083.118.118 0 0 1-.038-.083" class="cls-10" data-name="Path 998" transform="translate(735.407 140.092)"/>
            <path id="Path_999" d="M586.3 223.259a.118.118 0 1 1 .037.083.118.118 0 0 1-.037-.083" class="cls-10" data-name="Path 999" transform="translate(735.151 140.52)"/>
            <path id="Path_1000" d="M555.784 238.334a3.553 3.553 0 0 1-.246-2.8 2.293 2.293 0 0 1 2.357-1.362 2.038 2.038 0 0 0-.923-.18 2.307 2.307 0 0 0-2.1 2.484 2.476 2.476 0 0 0 .917 1.855" class="cls-10" data-name="Path 1000" transform="translate(752.046 134.695)"/>
            <path id="Path_1001" d="M549.848 230.076a1.9 1.9 0 0 1-.554-1.342 1.931 1.931 0 0 1 1.892-1.9c1.075-.059 3.046.265 4.307.1a8.422 8.422 0 0 0 3.877 4.707c-1.8-.8-3.518-2.63-5.022-3.466-1.569-.874-3.146-1-3.974-.24a2.164 2.164 0 0 0-.523 2.141" class="cls-10" data-name="Path 1001" transform="translate(755.028 138.543)"/>
            <path id="Path_1002" d="M559.065 238.127c.1.562-.912.738-.912.738a1.22 1.22 0 0 0 1.262-.33z" class="cls-10" data-name="Path 1002" transform="translate(750.275 132.467)"/>
            <path id="Path_1003" d="M574.524 238.772v-.006a3.007 3.007 0 0 0-.187 2.4 2.723 2.723 0 0 1-1.065.542s1.384.18 1.819-.561c-.836-.65-.587-2.269-.568-2.378" class="cls-10" data-name="Path 1003" transform="translate(742.153 132.129)"/>
            <path id="Path_1004" d="M580.994 219.526a.843.843 0 1 0 .831.994.923.923 0 0 0-.831-.994m.676.958a.716.716 0 1 1-.587-.7.652.652 0 0 1 .587.7" class="cls-10" data-name="Path 1004" transform="translate(738.461 142.462)"/>
            <path id="Path_1005" d="M581.867 220.837a.4.4 0 1 1 .323.389.361.361 0 0 1-.323-.389" class="cls-10" data-name="Path 1005" transform="translate(737.539 141.97)"/>
            <path id="Path_1006" d="M578.567 237.049c.332.619-.731.846-.731.846.738.126 1.163-.352 1.163-.549-.159-.67-.334-.161-.432-.3" class="cls-10" data-name="Path 1006" transform="translate(739.7 133.078)"/>
            <path id="Path_1007" d="M580.643 219.36a1.555 1.555 0 0 0-2.63-.125.254.254 0 0 1-.391-.323 1.838 1.838 0 0 1 1.367-.609 1.8 1.8 0 0 1 1.654 1.056" class="cls-10" data-name="Path 1007" transform="translate(739.856 143.112)"/>
            <path id="Path_1008" d="M576.877 224.763a3.673 3.673 0 0 1-1.938-.784 3.994 3.994 0 0 1-1.21-1.373.168.168 0 0 1 .06-.231.163.163 0 0 1 .228.06 4.512 4.512 0 0 0 1.149 1.474 3.9 3.9 0 0 0 1.713.855" class="cls-10" data-name="Path 1008" transform="translate(741.924 140.945)"/>
            <path id="Path_1009" d="M574.294 227.268a4.846 4.846 0 0 1-3.043-1.5 4.977 4.977 0 0 1-.945-1.348.166.166 0 0 1 .066-.227.163.163 0 0 1 .227.066 5.693 5.693 0 0 0 1.121 1.682 4.476 4.476 0 0 0 2.575 1.329" class="cls-10" data-name="Path 1009" transform="translate(743.763 139.969)"/>
            <path id="Path_1010" d="M566.6 225.917a.169.169 0 0 1 .212.1 6.088 6.088 0 0 0 1.477 2.379 5.476 5.476 0 0 0 3.6 1.618 5.485 5.485 0 0 1-3.907-1.632 6.405 6.405 0 0 1-1.487-2.256.168.168 0 0 1 .1-.213" class="cls-10" data-name="Path 1010" transform="translate(745.807 139.036)"/>
            <path id="Path_1011" d="M579.232 222.341a1.855 1.855 0 0 0 .966.3 1.181 1.181 0 0 0 1.251-.969 1.343 1.343 0 0 1-1.368 1.215 1.834 1.834 0 0 1-1-.241.171.171 0 0 1-.075-.227.163.163 0 0 1 .226-.076" class="cls-10" data-name="Path 1011" transform="translate(739.088 141.309)"/>
        </g>
    </g>
</svg>
